name rise42.5664peak47.7979fall81.9185.mot
datacolumns 19
datarows 18
range 11.91329000000000 11.94161600000000
endheader
time	ground_force1_vx	ground_force1_vy	ground_force1_vz	ground_force1_px	ground_force1_py	ground_force1_pz	ground_force2_vx	ground_force2_vy	ground_force2_vz	ground_force2_px	ground_force2_py	ground_force2_pz	ground_torque1_x	ground_torque1_y	ground_torque1_z	ground_torque2_x	ground_torque2_y	ground_torque2_z	
11.91329000000000	12.35101300000000	695.47794099999999	41.23530300000000	0.19032400000000	0.00000000000000	0.10917800000000	0.00000000000000	0.00000000000000	0.00000000000000	0.00000000000000	0.00000000000000	0.00000000000000	0.00000000000000	13.07074200000000	0.00000000000000	0.00000000000000	0.00000000000000	0.00000000000000	
11.91495300000000	12.01829000000000	696.32305199999996	41.28574900000000	0.18948200000000	0.00000000000000	0.10914700000000	0.00000000000000	0.00000000000000	0.00000000000000	0.00000000000000	0.00000000000000	0.00000000000000	0.00000000000000	13.13481300000000	0.00000000000000	0.00000000000000	0.00000000000000	0.00000000000000	
11.91661600000000	11.66906000000000	697.19123300000001	41.33907300000000	0.18861200000000	0.00000000000000	0.10911800000000	0.00000000000000	0.00000000000000	0.00000000000000	0.00000000000000	0.00000000000000	0.00000000000000	0.00000000000000	13.20273100000000	0.00000000000000	0.00000000000000	0.00000000000000	0.00000000000000	
11.91828700000000	11.30329000000000	698.08177300000000	41.39495500000000	0.18771500000000	0.00000000000000	0.10908900000000	0.00000000000000	0.00000000000000	0.00000000000000	0.00000000000000	0.00000000000000	0.00000000000000	0.00000000000000	13.27439900000000	0.00000000000000	0.00000000000000	0.00000000000000	0.00000000000000	
11.91995600000000	10.92100900000000	698.99408700000004	41.45308900000000	0.18679000000000	0.00000000000000	0.10906300000000	0.00000000000000	0.00000000000000	0.00000000000000	0.00000000000000	0.00000000000000	0.00000000000000	0.00000000000000	13.34971500000000	0.00000000000000	0.00000000000000	0.00000000000000	0.00000000000000	
11.92162000000000	10.52230000000000	699.92771300000004	41.51318300000000	0.18583900000000	0.00000000000000	0.10903700000000	0.00000000000000	0.00000000000000	0.00000000000000	0.00000000000000	0.00000000000000	0.00000000000000	0.00000000000000	13.42858100000000	0.00000000000000	0.00000000000000	0.00000000000000	0.00000000000000	
11.92328500000000	10.10731000000000	700.88230599999997	41.57496600000000	0.18486400000000	0.00000000000000	0.10901300000000	0.00000000000000	0.00000000000000	0.00000000000000	0.00000000000000	0.00000000000000	0.00000000000000	0.00000000000000	13.51089300000000	0.00000000000000	0.00000000000000	0.00000000000000	0.00000000000000	
11.92495200000000	9.67624000000000	701.85763499999996	41.63818300000000	0.18386500000000	0.00000000000000	0.10899000000000	0.00000000000000	0.00000000000000	0.00000000000000	0.00000000000000	0.00000000000000	0.00000000000000	0.00000000000000	13.59654800000000	0.00000000000000	0.00000000000000	0.00000000000000	0.00000000000000	
11.92662600000000	9.22934800000000	702.85358099999996	41.70259900000000	0.18284500000000	0.00000000000000	0.10896800000000	0.00000000000000	0.00000000000000	0.00000000000000	0.00000000000000	0.00000000000000	0.00000000000000	0.00000000000000	13.68544100000000	0.00000000000000	0.00000000000000	0.00000000000000	0.00000000000000	
11.92829200000000	8.76694700000000	703.87012500000003	41.76800100000000	0.18180400000000	0.00000000000000	0.10894700000000	0.00000000000000	0.00000000000000	0.00000000000000	0.00000000000000	0.00000000000000	0.00000000000000	0.00000000000000	13.77746500000000	0.00000000000000	0.00000000000000	0.00000000000000	0.00000000000000	
11.92995500000000	8.28940500000000	704.90734899999995	41.83419400000000	0.18074500000000	0.00000000000000	0.10892700000000	0.00000000000000	0.00000000000000	0.00000000000000	0.00000000000000	0.00000000000000	0.00000000000000	0.00000000000000	13.87251100000000	0.00000000000000	0.00000000000000	0.00000000000000	0.00000000000000	
11.93162300000000	7.79714000000000	705.96542599999998	41.90100900000000	0.17966800000000	0.00000000000000	0.10890800000000	0.00000000000000	0.00000000000000	0.00000000000000	0.00000000000000	0.00000000000000	0.00000000000000	0.00000000000000	13.97046700000000	0.00000000000000	0.00000000000000	0.00000000000000	0.00000000000000	
11.93328300000000	7.29062200000000	707.04461000000003	41.96829600000000	0.17857500000000	0.00000000000000	0.10889000000000	0.00000000000000	0.00000000000000	0.00000000000000	0.00000000000000	0.00000000000000	0.00000000000000	0.00000000000000	14.07122000000000	0.00000000000000	0.00000000000000	0.00000000000000	0.00000000000000	
11.93495700000000	6.77036700000000	708.14523299999996	42.03593100000000	0.17746900000000	0.00000000000000	0.10887200000000	0.00000000000000	0.00000000000000	0.00000000000000	0.00000000000000	0.00000000000000	0.00000000000000	0.00000000000000	14.17465300000000	0.00000000000000	0.00000000000000	0.00000000000000	0.00000000000000	
11.93662000000000	6.23693700000000	709.26769200000001	42.10381100000000	0.17635200000000	0.00000000000000	0.10885500000000	0.00000000000000	0.00000000000000	0.00000000000000	0.00000000000000	0.00000000000000	0.00000000000000	0.00000000000000	14.28064700000000	0.00000000000000	0.00000000000000	0.00000000000000	0.00000000000000	
11.93828800000000	5.69093900000000	710.41244400000005	42.17186000000000	0.17522400000000	0.00000000000000	0.10883800000000	0.00000000000000	0.00000000000000	0.00000000000000	0.00000000000000	0.00000000000000	0.00000000000000	0.00000000000000	14.38908000000000	0.00000000000000	0.00000000000000	0.00000000000000	0.00000000000000	
11.93995200000000	5.13301700000000	711.57999400000006	42.24002400000000	0.17408700000000	0.00000000000000	0.10882200000000	0.00000000000000	0.00000000000000	0.00000000000000	0.00000000000000	0.00000000000000	0.00000000000000	0.00000000000000	14.49982600000000	0.00000000000000	0.00000000000000	0.00000000000000	0.00000000000000	
11.94161600000000	4.56385700000000	712.77088600000002	42.30827400000000	0.17294400000000	0.00000000000000	0.10880700000000	0.00000000000000	0.00000000000000	0.00000000000000	0.00000000000000	0.00000000000000	0.00000000000000	0.00000000000000	14.61275600000000	0.00000000000000	0.00000000000000	0.00000000000000	0.00000000000000	
